<mxfile host="app.diagrams.net" agent="Mozilla/5.0 (Windows NT 10.0; Win64; x64) AppleWebKit/537.36 (KHTML, like Gecko) Chrome/129.0.0.0 Safari/537.36" version="24.7.17">
  <diagram name="Page-1" id="e7e014a7-5840-1c2e-5031-d8a46d1fe8dd">
    <mxGraphModel dx="1050" dy="522" grid="1" gridSize="10" guides="1" tooltips="1" connect="1" arrows="1" fold="1" page="1" pageScale="1" pageWidth="1169" pageHeight="826" background="none" math="0" shadow="0">
      <root>
        <mxCell id="0" />
        <mxCell id="1" parent="0" />
        <mxCell id="idZ_gyS1eK1THXUrfajE-42" value="&lt;div&gt;Car Park Management System&lt;/div&gt;&lt;div&gt;&lt;br&gt;&lt;/div&gt;&lt;div&gt;&lt;br&gt;&lt;/div&gt;&lt;div&gt;&lt;br&gt;&lt;/div&gt;&lt;div&gt;&lt;br&gt;&lt;/div&gt;&lt;div&gt;&lt;br&gt;&lt;/div&gt;&lt;div&gt;&lt;br&gt;&lt;/div&gt;&lt;div&gt;&lt;br&gt;&lt;/div&gt;&lt;div&gt;&lt;br&gt;&lt;/div&gt;&lt;div&gt;&lt;br&gt;&lt;/div&gt;&lt;div&gt;&lt;br&gt;&lt;/div&gt;&lt;div&gt;&lt;br&gt;&lt;/div&gt;&lt;div&gt;&lt;br&gt;&lt;/div&gt;&lt;div&gt;&lt;br&gt;&lt;/div&gt;&lt;div&gt;&lt;br&gt;&lt;/div&gt;&lt;div&gt;&lt;br&gt;&lt;/div&gt;&lt;div&gt;&lt;br&gt;&lt;/div&gt;&lt;div&gt;&lt;br&gt;&lt;/div&gt;&lt;div&gt;&lt;br&gt;&lt;/div&gt;&lt;div&gt;&lt;br&gt;&lt;/div&gt;&lt;div&gt;&lt;br&gt;&lt;/div&gt;&lt;div&gt;&lt;br&gt;&lt;/div&gt;&lt;div&gt;&lt;br&gt;&lt;/div&gt;&lt;div&gt;&lt;br&gt;&lt;/div&gt;&lt;div&gt;&lt;br&gt;&lt;/div&gt;&lt;div&gt;&lt;br&gt;&lt;/div&gt;&lt;div&gt;&lt;br&gt;&lt;/div&gt;&lt;div&gt;&lt;br&gt;&lt;/div&gt;&lt;div&gt;&lt;br&gt;&lt;/div&gt;&lt;div&gt;&lt;br&gt;&lt;/div&gt;&lt;div&gt;&lt;br&gt;&lt;/div&gt;&lt;div&gt;&lt;br&gt;&lt;/div&gt;&lt;div&gt;&lt;br&gt;&lt;/div&gt;&lt;div&gt;&lt;br&gt;&lt;/div&gt;&lt;div&gt;&lt;br&gt;&lt;/div&gt;&lt;div&gt;&lt;br&gt;&lt;/div&gt;&lt;div&gt;&lt;br&gt;&lt;/div&gt;&lt;div&gt;&lt;br&gt;&lt;/div&gt;&lt;div&gt;&lt;br&gt;&lt;/div&gt;&lt;div&gt;&lt;br&gt;&lt;/div&gt;&lt;div&gt;&lt;br&gt;&lt;/div&gt;&lt;div&gt;&lt;br&gt;&lt;/div&gt;&lt;div&gt;&lt;br&gt;&lt;/div&gt;&lt;div&gt;&lt;br&gt;&lt;/div&gt;&lt;div&gt;&lt;br&gt;&lt;/div&gt;&lt;div&gt;&lt;br&gt;&lt;/div&gt;" style="rounded=0;whiteSpace=wrap;html=1;strokeColor=default;align=center;verticalAlign=middle;fontFamily=Helvetica;fontSize=11;fontColor=default;labelBackgroundColor=default;" vertex="1" parent="1">
          <mxGeometry x="410" y="30" width="470" height="620" as="geometry" />
        </mxCell>
        <mxCell id="idZ_gyS1eK1THXUrfajE-87" style="rounded=0;orthogonalLoop=1;jettySize=auto;html=1;endArrow=none;endFill=0;" edge="1" parent="1" target="idZ_gyS1eK1THXUrfajE-63">
          <mxGeometry relative="1" as="geometry">
            <mxPoint x="330" y="140" as="sourcePoint" />
          </mxGeometry>
        </mxCell>
        <mxCell id="idZ_gyS1eK1THXUrfajE-49" value="User" style="shape=umlActor;verticalLabelPosition=bottom;verticalAlign=top;html=1;" vertex="1" parent="1">
          <mxGeometry x="290" y="120" width="30" height="60" as="geometry" />
        </mxCell>
        <mxCell id="idZ_gyS1eK1THXUrfajE-88" style="rounded=0;orthogonalLoop=1;jettySize=auto;html=1;endArrow=none;endFill=0;" edge="1" parent="1" target="idZ_gyS1eK1THXUrfajE-54">
          <mxGeometry relative="1" as="geometry">
            <mxPoint x="250" y="260" as="sourcePoint" />
          </mxGeometry>
        </mxCell>
        <mxCell id="idZ_gyS1eK1THXUrfajE-89" style="rounded=0;orthogonalLoop=1;jettySize=auto;html=1;entryX=0;entryY=0.5;entryDx=0;entryDy=0;endArrow=none;endFill=0;" edge="1" parent="1" target="idZ_gyS1eK1THXUrfajE-58">
          <mxGeometry relative="1" as="geometry">
            <mxPoint x="250" y="270" as="sourcePoint" />
          </mxGeometry>
        </mxCell>
        <mxCell id="idZ_gyS1eK1THXUrfajE-50" value="Customer" style="shape=umlActor;verticalLabelPosition=bottom;verticalAlign=top;html=1;" vertex="1" parent="1">
          <mxGeometry x="210" y="240" width="30" height="60" as="geometry" />
        </mxCell>
        <mxCell id="idZ_gyS1eK1THXUrfajE-84" style="rounded=0;orthogonalLoop=1;jettySize=auto;html=1;exitX=0.5;exitY=0;exitDx=0;exitDy=0;exitPerimeter=0;endArrow=block;endFill=0;" edge="1" parent="1" source="idZ_gyS1eK1THXUrfajE-52" target="idZ_gyS1eK1THXUrfajE-49">
          <mxGeometry relative="1" as="geometry" />
        </mxCell>
        <mxCell id="idZ_gyS1eK1THXUrfajE-85" style="rounded=0;orthogonalLoop=1;jettySize=auto;html=1;endArrow=none;endFill=0;" edge="1" parent="1" target="idZ_gyS1eK1THXUrfajE-57">
          <mxGeometry relative="1" as="geometry">
            <mxPoint x="280" y="400" as="sourcePoint" />
          </mxGeometry>
        </mxCell>
        <mxCell id="idZ_gyS1eK1THXUrfajE-86" style="rounded=0;orthogonalLoop=1;jettySize=auto;html=1;entryX=0;entryY=0.5;entryDx=0;entryDy=0;endArrow=none;endFill=0;" edge="1" parent="1" target="idZ_gyS1eK1THXUrfajE-56">
          <mxGeometry relative="1" as="geometry">
            <mxPoint x="280" y="390" as="sourcePoint" />
          </mxGeometry>
        </mxCell>
        <mxCell id="idZ_gyS1eK1THXUrfajE-52" value="Parking Attendant" style="shape=umlActor;verticalLabelPosition=bottom;verticalAlign=top;html=1;" vertex="1" parent="1">
          <mxGeometry x="240" y="380" width="30" height="60" as="geometry" />
        </mxCell>
        <mxCell id="idZ_gyS1eK1THXUrfajE-53" value="Payment Processing System" style="shape=umlActor;verticalLabelPosition=bottom;verticalAlign=top;html=1;" vertex="1" parent="1">
          <mxGeometry x="970" y="450" width="30" height="60" as="geometry" />
        </mxCell>
        <mxCell id="idZ_gyS1eK1THXUrfajE-54" value="UC-1 register account&lt;div&gt;extension points&lt;/div&gt;&lt;div&gt;register vehicle&lt;/div&gt;&lt;div&gt;register e wallet account&lt;/div&gt;&lt;div&gt;manage credit card info&lt;/div&gt;" style="ellipse;whiteSpace=wrap;html=1;" vertex="1" parent="1">
          <mxGeometry x="460" y="160.5" width="180" height="107" as="geometry" />
        </mxCell>
        <mxCell id="idZ_gyS1eK1THXUrfajE-55" value="" style="line;strokeWidth=1;fillColor=none;align=left;verticalAlign=middle;spacingTop=-1;spacingLeft=3;spacingRight=3;rotatable=0;labelPosition=right;points=[];portConstraint=eastwest;strokeColor=inherit;" vertex="1" parent="1">
          <mxGeometry x="465" y="191" width="170" height="8" as="geometry" />
        </mxCell>
        <mxCell id="idZ_gyS1eK1THXUrfajE-56" value="UC-2 manage user account" style="ellipse;whiteSpace=wrap;html=1;" vertex="1" parent="1">
          <mxGeometry x="480" y="281" width="140" height="70" as="geometry" />
        </mxCell>
        <mxCell id="idZ_gyS1eK1THXUrfajE-57" value="UC-3 manage payment by cash" style="ellipse;whiteSpace=wrap;html=1;" vertex="1" parent="1">
          <mxGeometry x="480" y="366" width="140" height="70" as="geometry" />
        </mxCell>
        <mxCell id="idZ_gyS1eK1THXUrfajE-58" value="UC-20 pay by e-payment" style="ellipse;whiteSpace=wrap;html=1;" vertex="1" parent="1">
          <mxGeometry x="480" y="460" width="140" height="70" as="geometry" />
        </mxCell>
        <mxCell id="idZ_gyS1eK1THXUrfajE-79" style="rounded=0;orthogonalLoop=1;jettySize=auto;html=1;exitX=0.5;exitY=0;exitDx=0;exitDy=0;endArrow=block;endFill=0;" edge="1" parent="1" source="idZ_gyS1eK1THXUrfajE-59" target="idZ_gyS1eK1THXUrfajE-58">
          <mxGeometry relative="1" as="geometry" />
        </mxCell>
        <mxCell id="idZ_gyS1eK1THXUrfajE-59" value="pay by e-wallet" style="ellipse;whiteSpace=wrap;html=1;" vertex="1" parent="1">
          <mxGeometry x="420" y="570" width="140" height="70" as="geometry" />
        </mxCell>
        <mxCell id="idZ_gyS1eK1THXUrfajE-80" style="rounded=0;orthogonalLoop=1;jettySize=auto;html=1;exitX=0.5;exitY=0;exitDx=0;exitDy=0;endArrow=block;endFill=0;" edge="1" parent="1" source="idZ_gyS1eK1THXUrfajE-60" target="idZ_gyS1eK1THXUrfajE-58">
          <mxGeometry relative="1" as="geometry" />
        </mxCell>
        <mxCell id="idZ_gyS1eK1THXUrfajE-60" value="pay by credit card" style="ellipse;whiteSpace=wrap;html=1;" vertex="1" parent="1">
          <mxGeometry x="590" y="570" width="140" height="70" as="geometry" />
        </mxCell>
        <mxCell id="idZ_gyS1eK1THXUrfajE-61" value="calculate total fee" style="ellipse;whiteSpace=wrap;html=1;" vertex="1" parent="1">
          <mxGeometry x="690" y="430" width="140" height="70" as="geometry" />
        </mxCell>
        <mxCell id="idZ_gyS1eK1THXUrfajE-62" value="manage credit card info" style="ellipse;whiteSpace=wrap;html=1;" vertex="1" parent="1">
          <mxGeometry x="690" y="268" width="140" height="70" as="geometry" />
        </mxCell>
        <mxCell id="idZ_gyS1eK1THXUrfajE-63" value="UC-4 login" style="ellipse;whiteSpace=wrap;html=1;" vertex="1" parent="1">
          <mxGeometry x="480" y="60" width="140" height="70" as="geometry" />
        </mxCell>
        <mxCell id="idZ_gyS1eK1THXUrfajE-64" value="register vehicle" style="ellipse;whiteSpace=wrap;html=1;" vertex="1" parent="1">
          <mxGeometry x="670" y="60" width="140" height="70" as="geometry" />
        </mxCell>
        <mxCell id="idZ_gyS1eK1THXUrfajE-65" value="register e wallet account" style="ellipse;whiteSpace=wrap;html=1;" vertex="1" parent="1">
          <mxGeometry x="720" y="150" width="140" height="70" as="geometry" />
        </mxCell>
        <mxCell id="idZ_gyS1eK1THXUrfajE-70" value="&amp;lt;&amp;lt;include&amp;gt;&amp;gt;" style="html=1;verticalAlign=bottom;labelBackgroundColor=none;endArrow=open;endFill=0;dashed=1;rounded=0;exitX=1;exitY=0.5;exitDx=0;exitDy=0;entryX=0.5;entryY=0;entryDx=0;entryDy=0;" edge="1" parent="1" source="idZ_gyS1eK1THXUrfajE-57" target="idZ_gyS1eK1THXUrfajE-61">
          <mxGeometry x="-0.5891" y="6" width="160" relative="1" as="geometry">
            <mxPoint x="460" y="290" as="sourcePoint" />
            <mxPoint x="620" y="290" as="targetPoint" />
            <mxPoint as="offset" />
          </mxGeometry>
        </mxCell>
        <mxCell id="idZ_gyS1eK1THXUrfajE-71" value="&amp;lt;&amp;lt;include&amp;gt;&amp;gt;" style="html=1;verticalAlign=bottom;labelBackgroundColor=none;endArrow=open;endFill=0;dashed=1;rounded=0;exitX=0.706;exitY=0.063;exitDx=0;exitDy=0;exitPerimeter=0;" edge="1" parent="1" source="idZ_gyS1eK1THXUrfajE-58" target="idZ_gyS1eK1THXUrfajE-61">
          <mxGeometry x="-0.4398" y="5" width="160" relative="1" as="geometry">
            <mxPoint x="460" y="390" as="sourcePoint" />
            <mxPoint x="620" y="390" as="targetPoint" />
            <mxPoint as="offset" />
          </mxGeometry>
        </mxCell>
        <mxCell id="idZ_gyS1eK1THXUrfajE-72" value="&amp;lt;&amp;lt;extend&amp;gt;&amp;gt;" style="html=1;verticalAlign=bottom;labelBackgroundColor=none;endArrow=open;endFill=0;dashed=1;rounded=0;exitX=0.286;exitY=1;exitDx=0;exitDy=0;exitPerimeter=0;" edge="1" parent="1" source="idZ_gyS1eK1THXUrfajE-64" target="idZ_gyS1eK1THXUrfajE-54">
          <mxGeometry width="160" relative="1" as="geometry">
            <mxPoint x="460" y="290" as="sourcePoint" />
            <mxPoint x="620" y="290" as="targetPoint" />
          </mxGeometry>
        </mxCell>
        <mxCell id="idZ_gyS1eK1THXUrfajE-73" value="&amp;lt;&amp;lt;extend&amp;gt;&amp;gt;" style="html=1;verticalAlign=bottom;labelBackgroundColor=none;endArrow=open;endFill=0;dashed=1;rounded=0;entryX=0.976;entryY=0.388;entryDx=0;entryDy=0;entryPerimeter=0;" edge="1" parent="1" source="idZ_gyS1eK1THXUrfajE-65" target="idZ_gyS1eK1THXUrfajE-54">
          <mxGeometry width="160" relative="1" as="geometry">
            <mxPoint x="460" y="290" as="sourcePoint" />
            <mxPoint x="620" y="290" as="targetPoint" />
          </mxGeometry>
        </mxCell>
        <mxCell id="idZ_gyS1eK1THXUrfajE-74" value="&amp;lt;&amp;lt;extend&amp;gt;&amp;gt;" style="html=1;verticalAlign=bottom;labelBackgroundColor=none;endArrow=open;endFill=0;dashed=1;rounded=0;exitX=0.046;exitY=0.406;exitDx=0;exitDy=0;exitPerimeter=0;entryX=0.949;entryY=0.702;entryDx=0;entryDy=0;entryPerimeter=0;" edge="1" parent="1" source="idZ_gyS1eK1THXUrfajE-62" target="idZ_gyS1eK1THXUrfajE-54">
          <mxGeometry width="160" relative="1" as="geometry">
            <mxPoint x="460" y="290" as="sourcePoint" />
            <mxPoint x="620" y="290" as="targetPoint" />
          </mxGeometry>
        </mxCell>
        <mxCell id="idZ_gyS1eK1THXUrfajE-75" value="&amp;lt;&amp;lt;extend&amp;gt;&amp;gt;" style="html=1;verticalAlign=bottom;labelBackgroundColor=none;endArrow=open;endFill=0;dashed=1;rounded=0;exitX=0.446;exitY=0.989;exitDx=0;exitDy=0;exitPerimeter=0;" edge="1" parent="1" source="idZ_gyS1eK1THXUrfajE-62">
          <mxGeometry x="-0.4053" y="-4" width="160" relative="1" as="geometry">
            <mxPoint x="460" y="490" as="sourcePoint" />
            <mxPoint x="620" y="490" as="targetPoint" />
            <mxPoint as="offset" />
          </mxGeometry>
        </mxCell>
        <mxCell id="idZ_gyS1eK1THXUrfajE-83" style="rounded=0;orthogonalLoop=1;jettySize=auto;html=1;exitX=0.5;exitY=0;exitDx=0;exitDy=0;exitPerimeter=0;entryX=0;entryY=0.3333333333333333;entryDx=0;entryDy=0;entryPerimeter=0;endArrow=block;endFill=0;" edge="1" parent="1" source="idZ_gyS1eK1THXUrfajE-50" target="idZ_gyS1eK1THXUrfajE-49">
          <mxGeometry relative="1" as="geometry" />
        </mxCell>
        <mxCell id="idZ_gyS1eK1THXUrfajE-90" style="rounded=0;orthogonalLoop=1;jettySize=auto;html=1;entryX=1;entryY=0.5;entryDx=0;entryDy=0;endArrow=none;endFill=0;" edge="1" parent="1" target="idZ_gyS1eK1THXUrfajE-61">
          <mxGeometry relative="1" as="geometry">
            <mxPoint x="960" y="470" as="sourcePoint" />
          </mxGeometry>
        </mxCell>
      </root>
    </mxGraphModel>
  </diagram>
</mxfile>
